<svg width="143" height="163" viewBox="0 0 143 163" fill="none" xmlns="http://www.w3.org/2000/svg">
<path d="M32.3777 46.3422C33.6422 46.8733 36.1712 48.334 36.1712 49.9275C36.1712 51.5211 30.1015 96.538 27.0667 118.847C26.5609 120.308 25.094 123.349 23.2731 123.827C21.4522 124.305 54.8862 124.026 71.8308 123.827C88.7754 124.026 122.209 124.305 120.389 123.827C118.568 123.349 117.101 120.308 116.595 118.847C113.56 96.538 107.49 51.5211 107.49 49.9275C107.49 48.334 110.019 46.8733 111.284 46.3422H71.8308H32.3777Z" fill="white" stroke="black" stroke-width="2"/>
<rect x="17.6345" y="36.1213" width="108.393" height="9.22081" rx="4.61041" fill="white" stroke="black" stroke-width="2"/>
<rect x="23.1581" y="117.611" width="97.3452" height="12.9595" fill="white" stroke="black" stroke-width="2"/>
<rect x="10.1268" y="132.571" width="123.408" height="13.707" fill="white" stroke="black" stroke-width="2"/>
<rect x="1.8197" y="148.278" width="140.022" height="13.707" fill="white" stroke="black" stroke-width="2"/>
<path d="M125.938 1.54126L123.408 36.616L109.198 35.485H21.0266L16.0143 1.76561H41.5316L42.8986 27.3589H59.4545V1.76561H83.7568V27.3589H109.198L108.962 1.81443L125.938 1.54126Z" fill="#F1F1F1"/>
<path d="M120.862 21.7708L122.073 1.81323H125.758L124.441 21.7708H124.467L124.091 27.0718L123.915 29.7434H123.902L123.409 36.7054H20.2171L15.8551 1.89807H35.1256L36.6913 21.7708H48.0127L46.3266 1.89807H72.8235V21.7708H89.083V1.89807H112.81V21.7708H120.862Z" fill="white" stroke="black" stroke-width="2"/>
</svg>
