<svg width="144" height="222" viewBox="0 0 144 222" fill="none" xmlns="http://www.w3.org/2000/svg">
<path d="M86.0875 15.1703C86.0875 22.8066 79.8739 29.0032 72.2016 29.0032C64.5292 29.0032 58.3157 22.8066 58.3157 15.1703C58.3157 7.53391 64.5292 1.33734 72.2016 1.33734C79.8739 1.33734 86.0875 7.53391 86.0875 15.1703Z" fill="white" stroke="black" stroke-width="2"/>
<rect x="59.8274" y="26.687" width="24.3452" height="1.72413" rx="0.862067" fill="white" stroke="black" stroke-width="1.72413"/>
<path d="M34.3943 174.461V170.459C43.9066 159.541 49.6656 145.285 49.6656 129.69C49.6656 116.96 45.8276 105.121 39.2422 95.2615H104.758C98.1723 105.121 94.3343 116.96 94.3343 129.69C94.3343 145.285 100.093 159.541 109.606 170.459V174.461H34.3943Z" fill="white" stroke="black" stroke-width="2"/>
<path fill-rule="evenodd" clip-rule="evenodd" d="M72 27.549H64.5923L33.6148 71.9266C30.9058 76.5431 29.1141 87.4733 43.6195 94.2616H72H100.381C114.886 87.4733 113.094 76.5431 110.385 71.9266L79.4077 27.549H72Z" fill="white"/>
<path d="M64.5923 27.549V26.549H64.0708L63.7723 26.9766L64.5923 27.549ZM33.6148 71.9266L32.7949 71.3542L32.7723 71.3865L32.7524 71.4205L33.6148 71.9266ZM43.6195 94.2616L43.1957 95.1673L43.3971 95.2616H43.6195V94.2616ZM100.381 94.2616V95.2616H100.603L100.804 95.1673L100.381 94.2616ZM110.385 71.9266L111.248 71.4205L111.228 71.3865L111.205 71.3542L110.385 71.9266ZM79.4077 27.549L80.2277 26.9766L79.9292 26.549H79.4077V27.549ZM64.5923 28.549H72V26.549H64.5923V28.549ZM34.4348 72.499L65.4123 28.1214L63.7723 26.9766L32.7949 71.3542L34.4348 72.499ZM44.0434 93.3559C37.0074 90.0632 34.073 85.849 33.1326 82.04C32.18 78.1816 33.2284 74.5611 34.4773 72.4327L32.7524 71.4205C31.2923 73.9086 30.0903 78.0614 31.1909 82.5194C32.3037 87.0266 35.7262 91.6718 43.1957 95.1673L44.0434 93.3559ZM72 93.2616H43.6195V95.2616H72V93.2616ZM72 95.2616H100.381V93.2616H72V95.2616ZM100.804 95.1673C108.274 91.6717 111.696 87.0266 112.809 82.5194C113.91 78.0614 112.708 73.9086 111.248 71.4205L109.523 72.4327C110.772 74.5611 111.82 78.1816 110.867 82.04C109.927 85.849 106.993 90.0632 99.9566 93.3559L100.804 95.1673ZM111.205 71.3542L80.2277 26.9766L78.5877 28.1214L109.565 72.499L111.205 71.3542ZM79.4077 26.549H72V28.549H79.4077V26.549Z" fill="black"/>
<rect x="30.7357" y="95.2615" width="82.5286" height="9.18089" rx="4.59044" fill="white" stroke="black" stroke-width="2"/>
<rect x="23.3273" y="176.461" width="97.3452" height="12.9063" fill="white" stroke="black" stroke-width="2"/>
<rect x="10.296" y="191.368" width="123.408" height="13.6511" fill="white" stroke="black" stroke-width="2"/>
<rect x="1.98889" y="207.019" width="140.022" height="13.6511" fill="white" stroke="black" stroke-width="2"/>
</svg>
