<svg width="186" height="210" viewBox="0 0 186 210" fill="none" xmlns="http://www.w3.org/2000/svg">
<path d="M80.3553 1.55334C73.5927 1.55334 75.1394 15.3424 76.7581 22.2369C74.9314 27.4398 68.867 29.7418 65.343 32.4115C61.8189 35.0813 64.9158 39.0325 58.6153 42.1293C52.3147 45.2262 45.587 50.886 33.5198 60.4971C21.4527 70.1081 14.191 73.5253 6.5022 74.4864C0.351155 75.2553 0.664403 79.9327 1.58991 82.1752L19.9576 102.679H28.1804C28.7143 99.6887 32.3452 94.1356 40.6747 92.9609C49.0042 91.7863 68.0127 96.1646 79.6527 90.1844C88.9647 85.4003 95.1371 75.7323 97.0593 71.4963L94.0182 80.3841C86.33 101.527 53.7751 112.418 38.4586 115.221C32.9327 126.634 47.2572 149.756 55.1102 159.891V163.48H136.291V160.187C147.658 148.82 154.129 124.627 155.944 113.952C156.355 124.504 149.005 145.796 145.278 155.123L170.631 163.597C185.719 140.562 192.479 101.921 172.553 63.0771C156.57 31.9192 124.1 22.1698 109.863 21.1898L109.132 25.2944C97.9093 5.86989 85.2713 1.37348 80.3553 1.55334Z" fill="white" stroke="black" stroke-width="2"/>
<rect x="45.5272" y="164.078" width="97.3452" height="12.9595" fill="white" stroke="black" stroke-width="2"/>
<rect x="32.496" y="179.038" width="123.408" height="13.707" fill="white" stroke="black" stroke-width="2"/>
<rect x="24.1888" y="194.745" width="140.022" height="13.707" fill="white" stroke="black" stroke-width="2"/>
</svg>
